<svg width="512" height="512" viewBox="0 0 512 512" fill="none" xmlns="http://www.w3.org/2000/svg">
<rect width="512" height="512" fill="#282828"/>
<path d="M328.54 382.796C332.299 382.796 335.959 382.102 339.52 380.715C351.787 375.167 357.921 362.089 357.921 341.481V281.442C350.205 278.271 342.686 276.686 335.366 276.686C329.43 276.686 324.088 278.073 319.339 280.847C305.885 288.773 299.158 305.814 299.158 331.97C299.158 342.472 300.543 351.785 303.313 359.909C308.457 375.167 316.866 382.796 328.54 382.796ZM357.921 188.41H388.786V372.096C388.786 373.086 388.786 374.176 388.786 375.365C389.578 381.706 393.04 384.381 399.174 383.39L400.361 406.276C377.805 410.834 364.549 403.899 360.592 385.471C351.095 400.134 337.839 407.564 320.823 407.763C308.754 407.763 298.268 403.8 289.364 395.874C274.723 382.598 267.402 362.188 267.402 334.645C267.402 316.019 270.964 299.771 278.087 285.9C289.958 262.915 308.754 251.422 334.475 251.422C341.598 251.422 349.413 252.512 357.921 254.691V188.41Z" fill="white"/>
<path d="M251.378 325.649C251.378 342.294 248.509 356.561 242.771 368.45C231.493 392.228 210.521 404.117 179.853 404.117C175.303 404.117 170.851 403.82 166.498 403.225C129.499 398.073 111 371.819 111 324.461V199.626H142.459V325.649C142.459 330.009 142.657 334.17 143.052 338.133C145.822 363.694 158.386 376.475 180.744 376.475C206.861 376.277 220.018 358.84 220.216 324.163V228.819C232.548 222.271 239.306 220.57 251.378 219.689V325.649Z" fill="#FF7800"/>
<path d="M255.445 105L144.363 149.248L168.71 159.95V205.702L162.623 230.115H174.797V162.625L190.273 169.428C196.099 154.099 221.991 140.709 256.967 140.709C291.572 140.709 317.833 152.611 323.556 168.934L369.57 149.248L255.445 105Z" fill="white"/>
<path d="M317.833 175.187C316.167 159.886 289.508 147.723 256.966 147.723C224.425 147.723 197.765 159.886 196.099 175.187V213.37C204.356 205.382 228.486 194.271 256.967 194.271C285.447 194.271 309.576 205.382 317.833 213.37C317.833 200.642 317.833 187.915 317.833 175.187Z" fill="white"/>
</svg>
